HIERARCHY
ROOT ui
{
	 OFFSET 0 0 0
	 CHANNELS 3 XPosition YPosition Z Position
	 EndSite
	 {
	 OFFSET 0 -1 0
	 }
}
ROOT li
{
	 OFFSET 0 0 0
	 CHANNELS 3 XPosition YPosition Z Position
	 EndSite
	 {
	 OFFSET 0 -1 0
	 }
}
ROOT ul
{
	 OFFSET 0 0 0
	 CHANNELS 3 XPosition YPosition Z Position
	 EndSite
	 {
	 OFFSET 0 -1 0
	 }
}
ROOT ll
{
	 OFFSET 0 0 0
	 CHANNELS 3 XPosition YPosition Z Position
	 EndSite
	 {
	 OFFSET 0 -1 0
	 }
}
ROOT tt
{
	 OFFSET 0 0 0
	 CHANNELS 3 XPosition YPosition Z Position
	 EndSite
	 {
	 OFFSET 0 -1 0
	 }
}
ROOT tb
{
	 OFFSET 0 0 0
	 CHANNELS 3 XPosition YPosition Z Position
	 EndSite
	 {
	 OFFSET 0 -1 0
	 }
}
ROOT td
{
	 OFFSET 0 0 0
	 CHANNELS 3 XPosition YPosition Z Position
	 EndSite
	 {
	 OFFSET 0 -1 0
	 }
}
ROOT v
{
	 OFFSET 0 0 0
	 CHANNELS 3 XPosition YPosition Z Position
	 EndSite
	 {
	 OFFSET 0 -1 0
	 }
}
ROOT bn
{
	 OFFSET 0 0 0
	 CHANNELS 3 XPosition YPosition Z Position
	 EndSite
	 {
	 OFFSET 0 -1 0
	 }
}
MOTION
Frames: 32
Frame Time: 0.002
0.009314380645751952	-0.00182635498046875	0		0.49136996459960935	-2.356471923828125	0		-1.0184217529296875	-0.04211774826049805	0		-0.7031234130859375	-2.3142041015625	0		1.318959228515625	-0.4929072570800781	0		2.914216552734375	0.16577946472167968	0		4.40446435546875	0.23600289916992187	0		5.6219150390625	0.12537605285644532	0		-0.1578923797607422	5.87241650390625	0		
0.07853582763671875	-0.007820452213287353	0		0.48311630249023435	-2.3601875	0		-1.0719365234375	-0.030477901458740235	0		-0.7453218994140625	-2.31366162109375	0		1.3113089599609375	-0.4964619140625	0		2.87321875	0.1490632781982422	0		4.40662744140625	0.2309541015625	0		5.6271923828125	0.12654035949707032	0		-0.2981382751464844	5.85352490234375	0		
-0.003975203990936279	-0.004550191879272461	0		0.47907223510742186	-2.3599892578125	0		-1.031694091796875	-0.04528100967407227	0		-0.7154390869140625	-2.318232177734375	0		1.306864501953125	-0.4960858154296875	0		2.88872265625	0.15547698974609375	0		4.3910283203125	0.2321585998535156	0		5.61261474609375	0.12799219512939453	0		-0.3039467468261719	5.8535546875	0		
-0.008336060523986817	-0.004481517791748047	0		0.48507745361328125	-2.368963623046875	0		-1.068984130859375	-0.040947036743164064	0		-0.7922286987304688	-2.3122451171875	0		1.3026077880859375	-0.49573944091796873	0		2.901311279296875	0.15490951538085937	0		4.3866171875	0.2331583251953125	0		5.60822607421875	0.12925071716308595	0		-0.34263296508789065	5.8480439453125	0		
0.06855259704589843	-0.0036077721118927004	0		0.48550216674804686	-2.363876953125	0		-1.036126708984375	-0.04265482711791992	0		-0.754877197265625	-2.3119541015625	0		1.2676231689453126	-0.49197921752929685	0		2.892248291015625	0.16262147521972656	0		4.37453857421875	0.2412180938720703	0		5.60406640625	0.1304460906982422	0		-0.31389581298828123	5.85252783203125	0		
0.05392762756347656	0.013584476470947265	0		0.4722102966308594	-2.355616455078125	0		-1.0769693603515624	-0.04130644607543945	0		-0.756251708984375	-2.309106689453125	0		1.297861083984375	-0.491192138671875	0		2.880333984375	0.16232485961914062	0		4.3895205078125	0.23482716369628906	0		5.6101708984375	0.13142306518554686	0		-0.31989471435546873	5.85350439453125	0		
0.058048004150390624	-0.007512158870697021	0		0.49196307373046877	-2.36284814453125	0		-1.0234639282226563	-0.036303524017333985	0		-0.7295362548828125	-2.318663330078125	0		1.2943707275390626	-0.49094888305664064	0		2.8888203125	0.16969052124023437	0		4.37898095703125	0.24173851013183595	0		5.61655029296875	0.13132115173339845	0		-0.1902732238769531	5.87256201171875	0		
-0.023196393966674805	-0.004433351993560791	0		0.46109228515625	-2.362388916015625	0		-1.0997315673828125	-0.035480510711669924	0		-0.7324173583984375	-2.3188037109375	0		1.2850777587890625	-0.49765625	0		2.886329345703125	0.15716146850585938	0		4.38257421875	0.23638243103027343	0		5.60326171875	0.13341401672363282	0		-0.3288458557128906	5.85337841796875	0		
0.051791065216064455	-0.007539368152618408	0		0.47144940185546874	-2.365524658203125	0		-1.0749267578125	-0.05207082748413086	0		-0.7689666748046875	-2.31448583984375	0		1.2481683349609376	-0.49801495361328124	0		2.850342529296875	0.1590450134277344	0		4.37754443359375	0.23607984924316405	0		5.5902626953125	0.13441651916503905	0		-0.36584011840820313	5.847748046875	0		
-0.017717132568359373	0.005332111835479736	0		0.4550943908691406	-2.367309814453125	0		-1.0754346923828124	-0.040303112030029294	0		-0.7652088012695313	-2.307726806640625	0		1.296680908203125	-0.48956951904296875	0		2.894513916015625	0.14978306579589845	0		4.3748310546875	0.23668112182617188	0		5.587564453125	0.1351968994140625	0		-0.31921029663085937	5.85996826171875	0		
0.05687637710571289	0.003238624095916748	0		0.4591925964355469	-2.35538525390625	0		-1.0918402099609374	-0.04231687927246094	0		-0.805276123046875	-2.30737548828125	0		1.244420654296875	-0.48477630615234374	0		2.877391845703125	0.17132186889648438	0		4.3675078125	0.24428851318359374	0		5.59515966796875	0.13576850891113282	0		-0.20521681213378906	5.8722939453125	0		
-0.04815126419067383	0.009554765701293945	0		0.45536065673828124	-2.35736328125	0		-1.0609940185546876	-0.04695686340332031	0		-0.7392135620117187	-2.3174453125	0		1.278255859375	-0.49416070556640623	0		2.855029296875	0.15389056396484374	0		4.36620068359375	0.23176519775390625	0		5.58304052734375	0.136545654296875	0		-0.209048095703125	5.87321875	0		
0.04279412078857422	-0.007745328903198242	0		0.45073757934570313	-2.36233740234375	0		-1.0628226318359375	-0.04714923095703125	0		-0.778772216796875	-2.317097900390625	0		1.276479736328125	-0.4940783996582031	0		2.857255859375	0.16010467529296876	0		4.35943212890625	0.23927552795410156	0		5.591189453125	0.13700140380859374	0		-0.2105851593017578	5.87211328125	0		
-0.036751747131347656	-0.004790585994720459	0		0.43540399169921873	-2.363176025390625	0		-1.0643970947265624	-0.04733647918701172	0		-0.744128173828125	-2.3197255859375	0		1.279875	-0.5000752258300781	0		2.8685791015625	0.15417564392089844	0		4.35782666015625	0.23968020629882814	0		5.579595703125	0.13767152404785157	0		-0.3811318664550781	5.84822119140625	0		
0.02811161231994629	0.010273799896240235	0		0.46330169677734373	-2.36358154296875	0		-1.0986768798828126	-0.04308884048461914	0		-0.8110838623046875	-2.30801708984375	0		1.242706298828125	-0.49055133056640626	0		2.861471435546875	0.17346995544433594	0		4.36544921875	0.23893229675292968	0		5.5782421875	0.13816435241699218	0		-0.382077392578125	5.8470966796875	0		
-0.009167887687683106	-0.002330744981765747	0		0.46241122436523435	-2.363610595703125	0		-1.0386756591796875	-0.0350529899597168	0		-0.74207568359375	-2.31606884765625	0		1.27564892578125	-0.48994525146484375	0		2.870159912109375	0.15953988647460937	0		4.3594033203125	0.24633610534667968	0		5.577115234375	0.13861886596679687	0		-0.216409423828125	5.87183154296875	0		
0.037860626220703124	-0.008016880989074706	0		0.4497954711914062	-2.357487060546875	0		-1.1047374267578125	-0.0473823356628418	0		-0.7807704467773438	-2.31571875	0		1.2747886962890624	-0.4899026489257812	0		2.868408447265625	0.17273593139648438	0		4.3544013671875	0.24070451354980468	0		5.5861982421875	0.13891566467285157	0		-0.21783503723144532	5.8717412109375	0		
0.022341283798217773	0.007108733177185058	0		0.44725674438476565	-2.35949072265625	0		-1.0324515380859376	-0.048471763610839845	0		-0.7473410034179687	-2.3202841796875	0		1.268029296875	-0.4967855529785156	0		2.851530517578125	0.16111503601074217	0		4.3585791015625	0.2339412078857422	0		5.585474609375	0.13931924438476562	0		-0.22002926635742187	5.87266845703125	0		
-0.04136195755004883	-0.005153385162353516	0		0.44075115966796874	-2.371439697265625	0		-1.101934814453125	-0.04374385452270508	0		-0.818604248046875	-2.312508544921875	0		1.2785374755859376	-0.49588482666015626	0		2.841987548828125	0.1623955078125	0		4.35801708984375	0.23422866821289062	0		5.5749208984375	0.13983145141601563	0		-0.35332330322265626	5.85126025390625	0		
-0.005650139808654785	0.003336287021636963	0		0.47155511474609374	-2.36985009765625	0		-1.0494224853515626	-0.05154717636108398	0		-0.7388212280273437	-2.31263037109375	0		1.2812137451171874	-0.4928796081542969	0		2.86544873046875	0.1522565460205078	0		4.353751953125	0.2465550994873047	0		5.5795986328125	0.1471375732421875	0		-0.37212750244140624	5.8544052734375	0		
-0.04573562240600586	0.018790292739868163	0		0.4526639709472656	-2.352624267578125	0		-1.10260302734375	-0.044005264282226564	0		-0.7779149169921875	-2.311240478515625	0		1.276048828125	-0.4867696228027344	0		2.86642431640625	0.1734044952392578	0		4.36138232421875	0.24072488403320313	0		5.584224609375	0.14043325805664061	0		-0.354864013671875	5.851109375	0		
0.041850852966308597	-0.0013394299745559692	0		0.4485948181152344	-2.3575771484375	0		-1.0657845458984374	-0.045575218200683595	0		-0.7460145263671875	-2.3187255859375	0		1.2728759765625	-0.4896784973144531	0		2.84602099609375	0.1558175811767578	0		4.3562841796875	0.24805252075195314	0		5.58404541015625	0.14078346252441407	0		-0.22217291259765626	5.87139599609375	0		
-0.042280235290527345	-0.0053230152130126955	0		0.4486758422851562	-2.357572509765625	0		-1.1068912353515625	-0.048164234161376954	0		-0.747960693359375	-2.320775390625	0		1.2667467041015625	-0.49654437255859374	0		2.858020263671875	0.1628326873779297	0		4.34397021484375	0.23046669006347656	0		5.57986181640625	0.13317961120605468	0		-0.22263916015625	5.87135595703125	0		
0.030757278442382813	-0.0032419719696044924	0		0.45873471069335936	-2.365684326171875	0		-1.0599105224609375	-0.05083179473876953	0		-0.7457805786132813	-2.31886669921875	0		1.2747470703125	-0.49957894897460936	0		2.866990478515625	0.16088851928710937	0		4.357021484375	0.23556874084472657	0		5.5739580078125	0.14159492492675782	0		-0.22400013732910157	5.87233544921875	0		
-0.03816115188598633	-0.0024082410335540773	0		0.4340214233398437	-2.360362548828125	0		-1.1027545166015624	-0.044384635925292966	0		-0.7795083618164063	-2.314510009765625	0		1.276013427734375	-0.48652520751953127	0		2.858081787109375	0.16316468811035156	0		4.3562421875	0.2488390655517578	0		5.574025390625	0.14192982482910158	0		-0.3906201171875	5.84634228515625	0		
0.02412925148010254	0.0098260498046875	0		0.4513576965332031	-2.3555517578125	0		-1.0656302490234375	-0.0459080696105957	0		-0.7771980590820312	-2.31158837890625	0		1.2761788330078125	-0.48645697021484374	0		2.854257568359375	0.16737522888183592	0		4.35636376953125	0.24909011840820314	0		5.58415234375	0.14213140869140625	0		-0.356772216796875	5.8508974609375	0		
-0.03783605575561524	-0.0024234309196472167	0		0.4496534118652344	-2.35750537109375	0		-1.1064727783203125	-0.048473686218261716	0		-0.7449678955078125	-2.3190224609375	0		1.270309814453125	-0.49331576538085936	0		2.882507080078125	0.17319149780273438	0		4.3524658203125	0.2433790283203125	0		5.5843330078125	0.14243994140625	0		-0.3569106750488281	5.8508740234375	0		
0.03633109664916992	-0.00831845474243164	0		0.474947021484375	-2.36278369140625	0		-1.0451212158203125	-0.03926866912841797	0		-0.7466381225585937	-2.321037353515625	0		1.270568359375	-0.4932497863769531	0		2.845673095703125	0.16878852844238282	0		4.35268603515625	0.24360585021972656	0		5.5804619140625	0.1347799072265625	0		-0.2247152557373047	5.87226025390625	0		
-0.041367752075195316	-0.005377524852752685	0		0.44222689819335936	-2.371361572265625	0		-1.090037353515625	-0.05477557373046875	0		-0.7442305908203125	-2.319095947265625	0		1.2788387451171874	-0.4952824401855469	0		2.841876220703125	0.16397669982910157	0		4.34993359375	0.24285481262207032	0		5.5748232421875	0.14312384033203124	0		-0.3569959716796875	5.85083935546875	0		
0.04299002456665039	-0.001381795048713684	0		0.4736583251953125	-2.369709228515625	0		-1.089731201171875	-0.054820392608642576	0		-0.8117105712890625	-2.3093115234375	0		1.243262939453125	-0.48679083251953126	0		2.882050048828125	0.15362933349609376	0		4.3542978515625	0.24900483703613283	0		5.59510693359375	0.14213749694824218	0		-0.3408591613769531	5.85863525390625	0		
-0.029614469528198243	0.004498202800750733	0		0.4651817626953125	-2.36157568359375	0		-1.064292724609375	-0.046156551361083986	0		-0.7383505859375	-2.315208251953125	0		1.2825509033203124	-0.49219781494140624	0		2.8676259765625	0.1749318542480469	0		4.3666171875	0.24904672241210937	0		5.57544482421875	0.1436118927001953	0		-0.37581298828125	5.855046875	0		
0.02276860237121582	0.006890445232391357	0		0.45369287109375	-2.35540380859375	0		-1.0639398193359375	-0.04618380737304688	0		-0.81589599609375	-2.31329541015625	0		1.2719093017578125	-0.49300704956054686	0		2.847758056640625	0.15728976440429687	0		4.36489990234375	0.24424517822265626	0		5.5816953125	0.13576023864746095	0		-0.22347567749023436	5.8712353515625	0		
